<svg width="19" height="25" viewBox="0 0 19 25" fill="none" xmlns="http://www.w3.org/2000/svg">
<path d="M16.5312 9.375H15.75V6.25C15.75 2.80312 12.9469 0 9.5 0C6.05312 0 3.25 2.80312 3.25 6.25V9.375H2.46875C1.17708 9.375 0.125 10.426 0.125 11.7188V22.6562C0.125 23.949 1.17708 25 2.46875 25H16.5312C17.8229 25 18.875 23.949 18.875 22.6562V11.7188C18.875 10.426 17.8229 9.375 16.5312 9.375ZM5.33333 6.25C5.33333 3.95208 7.20208 2.08333 9.5 2.08333C11.7979 2.08333 13.6667 3.95208 13.6667 6.25V9.375H5.33333V6.25ZM10.5417 17.4187V19.7917C10.5417 20.3667 10.076 20.8333 9.5 20.8333C8.92396 20.8333 8.45833 20.3667 8.45833 19.7917V17.4187C7.83854 17.0573 7.41667 16.3927 7.41667 15.625C7.41667 14.476 8.35104 13.5417 9.5 13.5417C10.649 13.5417 11.5833 14.476 11.5833 15.625C11.5833 16.3927 11.1615 17.0573 10.5417 17.4187Z" fill="#A1D6FA"/>
</svg>
